<svg width="25" height="16" viewBox="0 0 25 16" fill="none" xmlns="http://www.w3.org/2000/svg">
<g clip-path="url(#clip0_1011_1441)">
<path d="M22.0344 0H2.09369C0.992388 0 0.0996094 0.89543 0.0996094 2V14C0.0996094 15.1046 0.992388 16 2.09369 16H22.0344C23.1357 16 24.0285 15.1046 24.0285 14V2C24.0285 0.89543 23.1357 0 22.0344 0Z" fill="#332927"/>
<path d="M9.07308 13C11.8263 13 14.0583 10.7614 14.0583 8C14.0583 5.23858 11.8263 3 9.07308 3C6.31984 3 4.08789 5.23858 4.08789 8C4.08789 10.7614 6.31984 13 9.07308 13Z" fill="#EB001B"/>
<path d="M15.0555 13C17.8087 13 20.0407 10.7614 20.0407 8C20.0407 5.23858 17.8087 3 15.0555 3C12.3023 3 10.0703 5.23858 10.0703 8C10.0703 10.7614 12.3023 13 15.0555 13Z" fill="#F79E1B"/>
<path fill-rule="evenodd" clip-rule="evenodd" d="M12.0644 3.99951C13.2752 4.91172 14.0585 6.36406 14.0585 7.99988C14.0585 9.6357 13.2752 11.088 12.0644 12.0002C10.8535 11.088 10.0703 9.6357 10.0703 7.99988C10.0703 6.36406 10.8535 4.91172 12.0644 3.99951Z" fill="#FF5F00"/>
</g>
<defs>
<clipPath id="clip0_1011_1441">
<rect width="23.9289" height="16" fill="white" transform="translate(0.0996094)"/>
</clipPath>
</defs>
</svg>
